<?xml version="1.0" standalone="no"?>
<!DOCTYPE svg PUBLIC "-//W3C//DTD SVG 20010904//EN"
 "http://www.w3.org/TR/2001/REC-SVG-20010904/DTD/svg10.dtd">
<svg version="1.0" xmlns="http://www.w3.org/2000/svg"
 width="500.000000pt" height="500.000000pt" viewBox="0 0 500.000000 500.000000"
 preserveAspectRatio="xMidYMid meet">
<metadata>
Created by potrace 1.16, written by Peter Selinger 2001-2019
</metadata>
<g transform="translate(0.000000,500.000000) scale(0.100000,-0.100000)"
fill="#000000" stroke="none">
<path d="M2380 4500 c-584 -41 -1123 -405 -1391 -940 -113 -226 -169 -466
-169 -727 0 -308 52 -531 188 -801 55 -110 73 -132 110 -132 l27 0 -32 -22
c-30 -22 -44 -48 -49 -93 -1 -12 13 -34 33 -52 27 -26 43 -33 74 -33 22 0 38
4 35 9 -3 5 -21 8 -39 6 -18 -2 -41 3 -52 11 -10 8 -13 14 -7 14 7 0 12 8 12
18 0 14 -2 15 -10 2 -7 -11 -10 -11 -10 -2 0 7 -4 10 -10 7 -6 -4 -10 7 -10
24 0 22 5 31 16 31 10 0 14 6 10 15 -3 10 4 20 22 29 33 17 159 39 173 30 5
-3 16 -1 23 5 26 21 79 1 69 -26 -4 -11 -3 -14 5 -9 7 4 12 1 12 -8 0 -9 5
-16 10 -16 6 0 10 -9 10 -20 0 -11 -5 -20 -11 -20 -6 0 -9 -9 -6 -19 3 -14 1
-18 -11 -14 -12 5 -14 1 -9 -19 7 -25 5 -26 -81 -42 -48 -9 -98 -18 -112 -20
-41 -6 -77 -27 -89 -50 -18 -37 -17 -73 2 -101 12 -15 15 -16 22 -4 5 8 4 11
0 6 -11 -9 -35 44 -26 58 5 10 7 15 10 33 0 5 20 15 44 22 23 7 53 16 67 21
48 16 125 32 175 34 48 3 89 -11 79 -27 -3 -4 2 -5 10 -2 11 4 16 0 16 -14 0
-11 -3 -22 -7 -25 -5 -2 -2 -2 5 -1 6 2 12 -3 12 -11 0 -8 -5 -15 -10 -15 -6
0 -16 -12 -22 -26 -11 -23 -13 -24 -19 -7 -7 17 -8 17 -8 0 -1 -11 -12 -20
-31 -24 -17 -3 -33 -10 -36 -15 -4 -6 2 -7 17 -2 13 4 34 8 47 8 13 1 34 11
46 24 55 52 37 129 -37 157 -42 16 -45 19 -35 40 10 23 12 22 68 -34 50 -49
59 -64 65 -106 6 -39 16 -56 47 -85 37 -34 40 -40 40 -91 -1 -45 3 -59 25 -81
30 -31 26 -46 -7 -28 -11 6 -30 8 -40 5 -11 -4 -30 -8 -42 -11 -13 -2 -36 -8
-53 -14 -24 -7 -19 -8 20 -3 102 14 126 7 153 -44 16 -29 15 -42 -2 -20 -13
17 -14 17 -20 0 -4 -10 -4 -14 0 -10 11 11 33 -13 27 -29 -4 -12 -8 -12 -20 3
-8 10 -12 13 -8 6 3 -7 3 -23 0 -36 -6 -20 -15 -26 -53 -31 -26 -3 -60 -9 -75
-11 -18 -4 -26 -2 -22 5 3 5 1 10 -5 10 -7 0 -10 -6 -7 -12 4 -13 17 -14 111
-7 36 3 53 10 67 28 11 13 19 20 20 15 0 -5 5 2 10 15 12 31 20 22 48 -54 35
-93 41 -101 81 -124 50 -28 72 -27 109 8 35 33 39 60 15 117 -36 86 -83 224
-76 224 4 0 36 -69 71 -153 36 -83 73 -162 84 -174 26 -29 79 -38 116 -18 71
36 68 87 -14 253 -36 73 -65 137 -65 142 0 29 21 -2 79 -113 122 -234 140
-257 207 -257 14 0 36 11 49 25 41 40 34 82 -35 217 -33 64 -60 125 -60 134 0
28 14 8 68 -96 89 -170 96 -182 124 -202 85 -60 204 2 202 105 -1 35 -20 72
-119 232 -214 346 -225 362 -253 375 -15 7 -81 16 -147 21 -188 14 -248 34
-331 111 -46 42 -114 164 -114 204 0 38 17 72 47 91 22 15 49 18 152 18 112 0
126 2 129 17 6 31 -88 112 -165 143 -67 27 -70 27 -193 19 -69 -5 -161 -9
-206 -9 -72 0 -84 3 -116 27 -71 54 -93 157 -85 388 7 194 33 294 122 472 62
122 122 206 214 298 58 57 72 76 58 78 -24 5 -130 -81 -233 -191 -99 -105
-195 -238 -249 -347 -21 -41 -40 -69 -42 -62 -6 17 51 190 92 279 174 377 481
671 842 809 202 76 291 94 518 101 154 4 197 2 300 -15 158 -28 314 -80 454
-153 140 -73 236 -143 359 -259 51 -50 97 -90 102 -90 15 0 2 40 -22 67 -203
226 -338 338 -538 446 -278 150 -605 219 -930 197z"/>
<path d="M4150 2485 c0 -8 -4 -23 -9 -33 -5 -9 -19 -46 -32 -82 -12 -36 -29
-73 -37 -82 -9 -11 -11 -18 -4 -18 6 0 16 8 21 18 6 9 11 12 11 6 0 -6 -6 -17
-14 -24 -8 -6 -12 -19 -9 -28 4 -13 2 -12 -11 3 -13 14 -16 15 -13 4 3 -9 -7
-27 -23 -42 -15 -14 -33 -40 -40 -57 -7 -16 -16 -30 -21 -30 -13 0 -66 -84
-62 -98 4 -9 9 -10 18 -2 22 18 26 -15 7 -62 -9 -24 -24 -49 -34 -56 -10 -7
-18 -19 -18 -27 0 -8 -5 -17 -12 -21 -8 -5 -9 -2 -5 9 3 9 1 19 -5 23 -8 5 -9
-3 -5 -25 5 -23 3 -30 -5 -25 -7 5 -8 3 -3 -6 5 -8 1 -18 -10 -27 -11 -7 -16
-13 -12 -13 4 0 -7 -16 -25 -36 -18 -20 -36 -42 -41 -49 -5 -9 -19 -12 -43
-10 -28 4 -33 3 -22 -8 20 -22 46 -13 89 29 42 41 119 147 119 164 0 5 3 10 8
10 11 0 47 72 44 88 -2 8 1 11 7 8 12 -8 85 120 76 134 -12 19 -26 10 -20 -11
5 -16 4 -19 -5 -14 -9 5 -11 4 -6 -3 4 -7 2 -12 -3 -12 -6 0 -10 -10 -8 -22 1
-14 -3 -22 -10 -21 -7 2 -10 -3 -7 -10 9 -25 -24 -14 -36 11 -9 20 -8 27 2 33
22 14 31 10 17 -8 -10 -12 -10 -14 -1 -9 16 9 43 62 36 69 -3 3 -1 14 5 24 6
11 11 13 11 5 0 -7 4 -11 10 -7 5 3 7 12 4 19 -7 19 25 44 35 27 10 -16 52 96
44 117 -4 10 -2 13 5 8 7 -4 12 -2 12 6 0 7 11 49 25 92 29 91 28 86 15 86 -5
0 -10 -7 -10 -15z"/>
<path d="M3674 2223 c-1 -39 -6 -68 -14 -73 -6 -4 -13 -22 -14 -41 -8 -91 -6
-86 -17 -64 -8 17 -8 16 -4 -7 3 -15 0 -39 -6 -55 -6 -15 -11 -30 -11 -33 0
-3 -6 -13 -13 -24 -8 -10 -11 -24 -8 -32 3 -8 -2 -17 -11 -20 -9 -3 -13 -10
-10 -15 3 -5 0 -9 -6 -9 -6 0 -8 -4 -5 -10 3 -5 1 -10 -4 -10 -6 0 -11 -7 -11
-15 0 -8 -4 -15 -9 -15 -7 0 -8 -18 -2 -53 0 -5 6 -5 12 -2 6 4 17 -1 24 -11
13 -18 14 -18 9 3 -5 17 2 27 35 48 23 14 46 23 51 20 5 -3 11 -1 15 5 4 6 11
7 17 4 6 -4 8 -2 5 3 -8 13 60 76 73 68 6 -3 7 1 4 9 -6 15 6 21 29 17 5 -1 6
3 2 9 -3 5 1 10 10 10 9 0 13 5 10 10 -3 6 -2 10 4 10 5 0 12 -6 15 -12 3 -7
3 -3 0 9 -4 18 -1 21 20 19 14 -2 23 1 20 6 -3 5 -1 14 5 21 5 7 6 19 2 26 -6
9 -11 10 -15 2 -4 -6 -5 -14 -3 -18 5 -8 -19 -35 -27 -31 -4 3 -81 -60 -120
-97 -31 -30 -187 -117 -195 -110 -3 3 -1 9 5 13 58 37 187 481 147 505 -5 3
-9 -24 -9 -60z"/>
<path d="M1837 2226 c-14 -13 -24 -32 -22 -42 2 -11 4 -26 4 -34 1 -8 11 -26
22 -40 15 -17 19 -19 15 -7 -3 11 -2 16 5 12 5 -4 7 -15 4 -25 -10 -30 59
-104 130 -139 58 -28 73 -31 79 -18 2 7 5 4 5 -6 1 -14 8 -16 38 -13 20 3 40
3 45 0 5 -3 50 -6 101 -6 70 -1 99 -6 122 -20 34 -20 117 -126 109 -139 -3 -5
-1 -9 4 -9 5 0 14 -12 20 -26 12 -26 32 -25 32 2 0 8 -4 13 -9 9 -12 -7 -43
54 -34 68 3 6 1 7 -5 3 -15 -9 -31 22 -24 47 3 14 1 18 -7 13 -6 -4 -8 -12 -5
-18 4 -7 2 -8 -5 -4 -6 4 -9 11 -6 16 9 15 -71 62 -112 65 -21 2 -71 7 -111
11 -40 3 -74 10 -77 14 -3 5 -14 6 -24 3 -33 -8 -123 16 -138 37 -8 11 -19 18
-24 15 -5 -3 -6 0 -3 8 4 11 -36 39 -56 39 -9 -1 -21 28 -16 37 3 5 -9 22 -27
37 -25 23 -31 35 -29 61 2 18 10 34 20 38 21 8 686 6 708 -2 12 -4 15 -3 10 5
-4 7 -4 12 1 12 15 0 73 -40 73 -50 0 -6 4 -8 10 -5 5 3 7 0 5 -8 -6 -14 33
-56 44 -47 3 3 7 -5 9 -17 2 -13 10 -23 19 -23 9 0 14 -3 10 -6 -7 -7 6 -24
46 -62 15 -14 26 -31 23 -38 -3 -7 2 -15 10 -18 8 -3 14 -11 14 -17 0 -8 -6
-7 -17 2 -16 13 -17 12 -5 -3 8 -9 11 -23 7 -30 -4 -7 0 -5 7 4 10 11 19 14
29 7 8 -5 9 -9 3 -9 -7 0 -15 -8 -19 -17 -5 -15 -4 -16 6 -5 15 14 33 16 24 2
-3 -5 0 -7 8 -4 8 3 21 -6 30 -20 11 -16 23 -23 36 -19 10 2 22 -1 26 -8 5 -7
4 -10 -2 -6 -5 3 -10 0 -10 -8 0 -10 6 -11 22 -5 16 6 27 4 40 -8 11 -10 15
-12 10 -3 -6 11 -3 13 17 8 13 -4 49 -2 79 2 35 6 58 5 67 -1 8 -7 12 -7 12 1
0 6 -6 11 -12 11 -7 0 0 7 16 15 16 9 38 13 50 10 17 -5 18 -4 6 4 -13 9 -12
12 5 25 11 9 25 15 30 16 6 0 3 -5 -5 -11 -13 -9 -13 -10 0 -6 8 2 13 12 12
22 -3 17 -2 17 15 4 16 -13 17 -13 4 4 -12 15 -11 17 3 17 10 0 15 3 13 8 -8
12 17 29 41 27 16 -1 19 2 12 11 -8 8 -6 13 6 18 9 3 19 4 23 1 4 -2 8 2 8 9
0 20 -32 14 -60 -11 -14 -12 -29 -18 -33 -15 -4 4 -4 2 -1 -5 5 -7 -16 -29
-52 -57 -94 -71 -117 -80 -201 -80 -113 -1 -165 32 -265 169 -90 121 -168 212
-192 221 -18 8 -157 14 -399 18 l-371 6 -26 -24z"/>
</g>
</svg>
