<?xml version="1.0" encoding="UTF-8"?>
<svg version="1.1" xmlns="http://www.w3.org/2000/svg" width="40" height="40">
<path d="M0 0 C2.94244821 1.5877879 4.00694 3.1886869 5.3125 6.25 C4.343125 5.610625 3.37375 4.97125 2.375 4.3125 C-2.49044475 1.56587797 -7.43068998 0.45703756 -12.93359375 1.796875 C-16.13414647 2.94789947 -18.85834688 4.36389792 -21.6875 6.25 C-21.6875 7.24 -21.6875 8.23 -21.6875 9.25 C-21.996875 9.806875 -22.30625 10.36375 -22.625 10.9375 C-24.1761974 14.31363551 -24.31843547 17.5593547 -24.6875 21.25 C-23.718125 21.188125 -22.74875 21.12625 -21.75 21.0625 C-17.19637362 21.07179312 -12.6984525 22.06072246 -8.6875 24.25 C-7.42578125 26.359375 -7.42578125 26.359375 -6.6875 28.25 C-4.23118999 27.75452457 -4.23118999 27.75452457 -1.6875 26.25 C-0.33973022 23.97037377 0.42614216 21.76912228 1.3125 19.25 C1.6425 19.25 1.9725 19.25 2.3125 19.25 C2.8075 22.715 2.8075 22.715 3.3125 26.25 C5.7875 23.775 5.7875 23.775 8.3125 21.25 C6.97829935 26.72022265 4.53710293 30.59053036 0.3125 34.25 C-2.27794717 35.61994802 -4.8594494 36.50577616 -7.6875 37.25 C-8.34621094 37.435625 -9.00492188 37.62125 -9.68359375 37.8125 C-14.63763643 38.89408437 -19.80395474 38.47088632 -24.6875 37.25 C-24.6875 36.59 -24.6875 35.93 -24.6875 35.25 C-25.3475 35.25 -26.0075 35.25 -26.6875 35.25 C-26.6875 34.59 -26.6875 33.93 -26.6875 33.25 C-27.3475 33.25 -28.0075 33.25 -28.6875 33.25 C-31.56549649 25.50681896 -33.83172336 16.87629549 -30.7734375 8.8515625 C-24.57874162 -1.89923229 -11.17926364 -5.24027983 0 0 Z " fill="#015491" transform="translate(31.6875,1.75)"/>
<path d="M0 0 C0.33 0 0.66 0 1 0 C1.33 2.31 1.66 4.62 2 7 C3.65 5.35 5.3 3.7 7 2 C5.6702786 7.45185773 3.06552973 11.2262547 -1 15 C-3.44408873 16.44210599 -4.6371447 17 -7.5 17 C-10 16 -10 16 -11.9375 13.0625 C-14.3872526 9.42498856 -15.91614236 9.1797811 -20 8 C-20.33 7.01 -20.66 6.02 -21 5 C-12.8645605 3.55717633 -12.8645605 3.55717633 -9.4375 5.3125 C-8 7 -8 7 -8 9 C-5.54368999 8.50452457 -5.54368999 8.50452457 -3 7 C-1.65223022 4.72037377 -0.88635784 2.51912228 0 0 Z " fill="#27A645" transform="translate(33,21)"/>
<path d="M0 0 C1.65 0 3.3 0 5 0 C8 5.625 8 5.625 8 9 C6.68 9 5.36 9 4 9 C4 8.34 4 7.68 4 7 C3.34 7 2.68 7 2 7 C2 6.34 2 5.68 2 5 C1.34 5 0.68 5 0 5 C0 3.35 0 1.7 0 0 Z " fill="#26A545" transform="translate(3,30)"/>
</svg>
